<?xml version="1.0" encoding="UTF-8"?>
<svg id="Capa_2" data-name="Capa 2" xmlns="http://www.w3.org/2000/svg" viewBox="0 0 82.49 82.49">
  <defs>
    <style>
      .cls-1 {
        fill: #fe0000;
      }

      .cls-2 {
        fill-rule: evenodd;
      }
    </style>
  </defs>
  <g id="Capa_1-2" data-name="Capa 1">
    <g>
      <g>
        <rect x="34.53" y="58.2" width="16.31" height="1.23"/>
        <path class="cls-2" d="M52.6,44.92c1.11-4.05,1.32-5.37-1.36-8.94.2,2.24-.04,3.03-1.54,4.82-.46-4.58-.27-6.6-3.29-10.26.08,2.05.37,2.74-.59,4.69-.66-3.18-2.27-5.24-3.21-8.14-.77-2.38-.58-3.72.29-6.02-.66,1.05-1.26,1.9-1.72,2.85-.36.72-.63,1.5-.79,2.46-.43,2.56.6,4.6-.43,7.28-1.95-1.72-2.89-2.11-5.44-2.24,2.21,3.86,2.57,4.18,2.11,8.29-1.76-1.38-2.57-2.06-4.91-2.06,1.62,2.6,2.69,3.7,2.37,6.97-2.21-.95-4.5-1.79-6.75-2.65,2.71,2.29,3.49,3.1,4.63,6.66.56,1.76,1.04,3.4,2.96,5.73.78.95,1.69,1.8,3.06,2.76,1.14.01,2.28.02,3.42.03-2.42-3.12-3.43-4.83-4.03-8.92.9-.11,1.65,1.02,2.15,1.64.45-2.07.37-2.59-.7-4.34,1.54-.08,1.75.61,2.63,1.75.05-1.98.26-4.04,1.07-5.81.04,2.43.94,3.34,1.56,5.46.03-.51.06-1.02.09-1.53,1.56,1.62,1.43,2.13,1.49,4.47.31-.61.61-1.23.92-1.84.25,1.91.47,3.65-.12,5.19-.58,1.51-2.18,2.64-3.25,3.94,1.14.01,2.28.02,3.42.03,6.5-4.44,8.17-7.13,8.51-15.43.09-2.19-.78,1.85-2.54,3.16Z"/>
      </g>
      <path class="cls-1" d="M41.24,82.49c-1.54,0-3.08-.59-4.25-1.76L1.76,45.5c-1.13-1.13-1.76-2.64-1.76-4.25s.62-3.12,1.76-4.25L37,1.76c2.34-2.34,6.16-2.34,8.5,0l35.24,35.24c1.13,1.13,1.76,2.64,1.76,4.25s-.62,3.12-1.76,4.25l-35.24,35.24c-1.17,1.17-2.71,1.76-4.25,1.76ZM41.25,5c-.26,0-.52.1-.71.29L5.29,40.53c-.25.25-.29.56-.29.71s.04.46.29.71l35.24,35.24c.39.39,1.04.39,1.43,0l35.24-35.24c.25-.25.29-.56.29-.71s-.04-.46-.29-.71L41.96,5.29c-.19-.19-.45-.29-.71-.29Z"/>
    </g>
  </g>
</svg>