<?xml version="1.0" encoding="UTF-8"?>
<svg id="Capa_2" data-name="Capa 2" xmlns="http://www.w3.org/2000/svg" viewBox="0 0 82.49 82.49">
  <defs>
    <style>
      .cls-1 {
        fill: #230e0e;
      }

      .cls-2 {
        fill: #fe0000;
      }
    </style>
  </defs>
  <g id="Capa_1-2" data-name="Capa 1">
    <g>
      <path class="cls-2" d="M41.24,82.49c-1.54,0-3.08-.59-4.25-1.76L1.76,45.5c-1.13-1.13-1.76-2.64-1.76-4.25s.62-3.12,1.76-4.25L37,1.76c2.34-2.34,6.16-2.34,8.5,0l35.24,35.24c1.13,1.13,1.76,2.64,1.76,4.25s-.62,3.12-1.76,4.25l-35.24,35.24c-1.17,1.17-2.71,1.76-4.25,1.76ZM41.25,5c-.26,0-.52.1-.71.29L5.29,40.53c-.25.25-.29.56-.29.71s.04.46.29.71l35.24,35.24c.39.39,1.04.39,1.43,0l35.24-35.24c.25-.25.29-.56.29-.71s-.04-.46-.29-.71L41.96,5.29c-.19-.19-.45-.29-.71-.29Z"/>
      <g>
        <path class="cls-1" d="M29.47,45.98h7.33c.49,0,.89-.41.86-.91-.02-.47-.44-.81-.91-.81h-7.28c-.12,0-.22-.1-.22-.22s.1-.22.22-.22h7.28c.47,0,.88-.35.91-.81.03-.5-.37-.91-.86-.91h-9.46s1.4-.47,2.02-.55c.62-.08,1.7-.47,2.04-.75.5-.41.68-.91.74-1.23.03-.17-.11-.32-.28-.28-.76.15-2.7.53-3.51.59-.37.03-1.11.13-1.9.24.03.12.06.24.06.38,0,.77-.62,1.39-1.39,1.39s-1.36-.6-1.38-1.35c-.17.03-.27.04-.27.04l-2.08.22c-1.42.15-2.73.83-3.67,1.91l-.49.56h-2.66v5.88h3.23c.99.74,2.18,1.13,3.41,1.13h15.56c.47,0,.88-.35.91-.81.03-.5-.37-.91-.86-.91h-7.33c-.12,0-.22-.1-.22-.22s.1-.22.22-.22h7.28c.47,0,.88-.35.91-.81.03-.5-.37-.91-.86-.91h-7.33c-.12,0-.22-.1-.22-.22h0c0-.12.1-.22.22-.22Z"/>
        <g>
          <path class="cls-1" d="M26.78,31.02l-.04-.41c.13-.01.26-.19.35-.45.11-.33.14-.77.1-1.23-.1-.99-.52-1.58-.77-1.56h0s-.04-.4-.04-.4c0,0,0,0,0,0l17.21-1.6c1.17-.11,2.22.75,2.33,1.92h0c.06.58-.12,1.14-.49,1.58-.37.45-.89.72-1.47.76l-17.18,1.39ZM27.04,27.31c.28.34.48.9.55,1.58.05.52.01,1.01-.11,1.4-.03.1-.07.2-.12.28l16.56-1.34c.47-.04.89-.26,1.19-.62.3-.36.44-.82.4-1.28-.09-.95-.94-1.65-1.89-1.56l-16.59,1.54Z"/>
          <path class="cls-1" d="M26.72,31.03c-.28,0-.55-.2-.77-.58-.2-.35-.34-.83-.4-1.35-.12-1.16.23-2.07.81-2.13.59-.06,1.11.77,1.22,1.93.05.52.01,1.01-.11,1.4-.14.44-.39.7-.69.73-.02,0-.04,0-.06,0ZM26.42,27.37s-.01,0-.02,0c-.25.03-.55.7-.44,1.69.05.46.17.88.34,1.19.14.24.31.39.43.37.13-.01.26-.19.35-.45.11-.33.14-.77.1-1.23-.1-.97-.51-1.56-.76-1.56Z"/>
          <path class="cls-1" d="M45.71,27.31h0c-.06-.59-.38-1.1-.84-1.41l-18.01,4.89s-.07.02-.11.03l17.18-1.39c1.08-.09,1.88-1.04,1.77-2.12Z"/>
          <path class="cls-1" d="M26.89,30.74c-.04-.07-.13-.09-.2-.05-.66.41-1.13,1-1.5,1.66-.73,1.31-.84,2.87-.79,4.34.03.73.08,1.46.17,2.19,0,.05-.45,1.02-.41,1.58.06.77.48,1.07.98,1.04.5-.04.88-.4.82-1.17-.04-.55-.55-1.51-.56-1.59-.45-2.6-.91-5.97,1.44-7.8.07-.04.1-.14.05-.21Z"/>
        </g>
        <g>
          <path class="cls-1" d="M55.44,39.21l-13.45-1.09c-.46-.04-.88-.26-1.18-.61-.3-.36-.44-.81-.39-1.27h0c.09-.94.93-1.63,1.87-1.55l13.47,1.25s0,0,0,0l-.04.41h0c-.06-.01-.17.06-.29.27-.13.23-.23.56-.26.91-.08.74.14,1.25.31,1.27l-.04.41ZM42.13,35.09c-.67,0-1.24.51-1.31,1.19h0c-.04.35.07.7.3.97.23.27.55.44.9.47l12.9,1.04c-.14-.31-.21-.76-.15-1.27.04-.41.15-.79.32-1.07.03-.04.05-.08.08-.12l-12.91-1.2s-.08,0-.12,0Z"/>
          <path class="cls-1" d="M55.49,39.22s-.03,0-.05,0c-.48-.05-.77-.79-.67-1.72.04-.41.15-.79.32-1.07.19-.33.44-.5.69-.47.25.03.46.24.58.6.1.31.13.7.09,1.11-.09.9-.5,1.55-.96,1.55ZM55.72,36.35c-.06,0-.17.07-.29.27-.13.23-.23.56-.26.91-.08.74.14,1.25.31,1.27.16.02.48-.44.56-1.18.04-.35,0-.69-.07-.95-.08-.23-.17-.32-.23-.33,0,0,0,0,0,0Z"/>
          <path class="cls-1" d="M40.62,36.26h0c.05-.46.3-.86.65-1.1l14.1,3.83s.05.02.08.02l-13.45-1.09c-.85-.07-1.47-.82-1.39-1.66Z"/>
          <path class="cls-1" d="M55.36,38.95c.03-.05.1-.07.16-.04.52.32.89.79,1.18,1.3.57,1.03.66,2.25.62,3.4-.02.57-.06,1.14-.13,1.72,0,.04.35.8.32,1.24-.04.6-.38.84-.77.81-.39-.03-.69-.31-.64-.91.03-.43.43-1.18.44-1.24.35-2.03.71-4.68-1.13-6.1-.06-.03-.08-.11-.04-.16Z"/>
        </g>
        <path class="cls-1" d="M57.99,45.58c.12.25.19.54.19.86,0,.95-.63,1.72-1.42,1.72s-1.42-.77-1.42-1.72c0-.31.07-.6.19-.86h-13.72v3.81h26.13v-3.81h-9.96Z"/>
      </g>
    </g>
  </g>
</svg>