<?xml version="1.0" encoding="UTF-8"?>
<svg id="Capa_2" data-name="Capa 2" xmlns="http://www.w3.org/2000/svg" viewBox="0 0 82.49 82.49">
  <defs>
    <style>
      .cls-1 {
        fill: #230e0e;
      }

      .cls-2 {
        fill: #fe0000;
      }
    </style>
  </defs>
  <g id="Capa_1-2" data-name="Capa 1">
    <g>
      <path class="cls-2" d="M41.24,82.49c-1.54,0-3.08-.59-4.25-1.76L1.76,45.5c-1.13-1.13-1.76-2.64-1.76-4.25s.62-3.12,1.76-4.25L37,1.76c2.34-2.34,6.16-2.34,8.5,0l35.24,35.24c1.13,1.13,1.76,2.64,1.76,4.25s-.62,3.12-1.76,4.25l-35.24,35.24c-1.17,1.17-2.71,1.76-4.25,1.76ZM41.25,5c-.26,0-.52.1-.71.29L5.29,40.53c-.25.25-.29.56-.29.71s.04.46.29.71l35.24,35.24c.39.39,1.04.39,1.43,0l35.24-35.24c.25-.25.29-.56.29-.71s-.04-.46-.29-.71L41.96,5.29c-.19-.19-.45-.29-.71-.29Z"/>
      <path class="cls-1" d="M53.09,41.41c-.95.36-2.06,2.42-2.22,1.73-.16-.69-.45-3.56.99-9.11,1.44-5.55-3.17,2.15-3.17,2.15,0,0-.86.89-.66-1.09.21-1.98-2.06-6.4-2.47-6.07-.41.32-.12.69-.33,1.94-.21,1.26.41,2.43-.33,2.02-.74-.4-2.55-3.68-2.59-4.82-.04-1.13-2.47-5.83-.97-7.25,1.5-1.42-1.38.53-1.38.53,0,0-3.01,3.2-2.02,6.72.99,3.52.99,3.77.66,4.29-.33.53-.29.57-1.4-.45s-3.54-1.42-3.25-1.05c.29.36,2.43,4.13,1.61,6.72-.82,2.59-2.88-1.82-2.55-2.71.33-.89-2.06,1.26-1.52,4.01.54,2.75.58,3.52.58,3.52,0,0-.12-1.74-1.56-2.31-1.44-.57-2.64-.12-2.64-.12,0,0,1.89.89,1.73,4.09-.16,3.2.54,5.99.54,5.99l.37,1.37c.02,5.84,4.79,10.57,10.68,10.57,5.52,0,10.07-4.16,10.63-9.5.4-1.02.89-2.5.84-3.58-.08-1.82-1.52-3-.49-4.82,1.03-1.82,1.69-2.19,2.31-2.51.62-.32-.41-.63-1.36-.28ZM47,41.04l1.52-1.09s-.54,2.51.74,4.13c.5.63.36.8.01.78-.54-1.05-1.53-1.96-2.8-2.63-.05-.44.07-.86.53-1.19ZM44.4,40.19c.62-1.13,1.52-1.3,1.52-1.3,0,0-.53,1.92,0,2.52.19.21.15.4.02.55-.48-.22-1-.4-1.55-.55-.17-.36-.23-.79,0-1.23ZM40.25,37.52c.66-1.05,1.61-2.16,1.61-2.16v.21s-.95,1.58,0,2.47c.74.7.9,2.37.94,3.06-.52-.07-1.05-.1-1.6-.1-.35,0-.69.02-1.02.04-.35-.82-.42-2.74.08-3.53ZM36.87,40.23c.74-.77.08-1.9.66-1.84.58.07.95,1.84.95,1.84,0,0,.18.51.23,1.02-.7.14-1.37.35-1.98.6-.17-.39-.36-1.09.15-1.62ZM33.41,41.41c.6.47.96,1.22,1.04,1.79-.7.6-1.22,1.29-1.52,2.04-.13-.22-.31-.89-.31-.89,0,0-.04-3.59.78-2.95ZM41.07,60.84c-4.89,0-8.85-4.07-8.85-9.09s3.96-9.09,8.85-9.09,8.85,4.07,8.85,9.09-3.96,9.09-8.85,9.09Z"/>
    </g>
  </g>
</svg>