<?xml version="1.0" encoding="UTF-8"?>
<svg id="Capa_2" data-name="Capa 2" xmlns="http://www.w3.org/2000/svg" viewBox="0 0 93.73 82.22">
  <defs>
    <style>
      .cls-1 {
        fill: #230e0e;
      }

      .cls-2 {
        fill: #f7ea1b;
      }
    </style>
  </defs>
  <g id="Capa_1-2" data-name="Capa 1">
    <g>
      <path class="cls-2" d="M43.42,1.99L.54,76.26c-1.53,2.65.38,5.96,3.44,5.96h85.76c3.06,0,4.97-3.31,3.44-5.96L50.31,1.99c-1.53-2.65-5.36-2.65-6.89,0Z"/>
      <path class="cls-1" d="M86.27,79.57H7.46c-1.17,0-2.23-.61-2.83-1.63-.6-1.04-.61-2.28-.02-3.32L44.02,5.2c.59-1.04,1.65-1.66,2.84-1.66h0c1.19,0,2.25.62,2.84,1.66l39.4,69.41c.59,1.04.59,2.29-.02,3.32-.59,1.02-1.65,1.63-2.82,1.63ZM46.32,6.51L6.92,75.92c-.18.31-.06.59,0,.69.07.12.23.32.54.32h78.8c.31,0,.47-.2.54-.32.06-.1.18-.38,0-.69L47.41,6.51c-.16-.28-.41-.33-.55-.33h0c-.13,0-.39.04-.55.33Z"/>
      <g>
        <g>
          <path class="cls-1" d="M41.94,45.99c1.42-1.09,3.18-1.74,5.11-1.74s3.67.64,5.08,1.72c.8-.62,1.49-1.39,2.04-2.27-1.95-1.6-4.43-2.56-7.13-2.56s-5.17.96-7.11,2.55c.53.88,1.21,1.67,2.02,2.31Z"/>
          <path class="cls-1" d="M41.94,46.03h-.02c-.8-.65-1.48-1.42-2.03-2.33v-.02s0-.02,0-.02c2.01-1.65,4.54-2.55,7.13-2.55s5.14.91,7.15,2.57l.02.02v.02c-.56.88-1.25,1.64-2.06,2.27h-.02s-.02,0-.02,0c-1.47-1.12-3.22-1.71-5.06-1.71s-3.61.6-5.09,1.73h-.02ZM39.96,43.69c.53.88,1.2,1.64,1.98,2.26,1.49-1.13,3.25-1.73,5.11-1.73s3.6.59,5.08,1.71c.79-.62,1.46-1.37,2-2.22-2-1.64-4.52-2.54-7.09-2.54s-5.07.9-7.07,2.52Z"/>
        </g>
        <g>
          <path class="cls-1" d="M55.53,51.59c.22,1.77-.12,3.62-1.1,5.28-.97,1.65-2.42,2.83-4.06,3.5.13,1,.44,1.99.92,2.91,2.37-.86,4.45-2.51,5.83-4.84,1.37-2.32,1.8-4.94,1.42-7.42-1.03,0-2.05.2-3.01.57Z"/>
          <path class="cls-1" d="M51.28,63.32v-.02c-.49-.92-.8-1.9-.93-2.92v-.02s.02,0,.02,0c1.71-.7,3.11-1.91,4.04-3.49.94-1.59,1.32-3.41,1.09-5.26v-.02s.02,0,.02,0c.95-.37,1.97-.56,3.02-.57h.03s0,.03,0,.03c.4,2.57-.11,5.21-1.42,7.44-1.32,2.24-3.39,3.96-5.84,4.86h-.02ZM50.41,60.4c.13.99.44,1.95.9,2.85,2.43-.89,4.48-2.6,5.79-4.82,1.3-2.21,1.8-4.83,1.42-7.37-1.03.01-2.02.2-2.95.56.22,1.85-.16,3.68-1.1,5.28-.94,1.59-2.33,2.8-4.05,3.51Z"/>
        </g>
        <g>
          <path class="cls-1" d="M43.47,60.37c-1.66-.67-3.12-1.85-4.1-3.51-.97-1.64-1.31-3.48-1.11-5.24-.94-.37-1.95-.58-2.99-.6-.39,2.49.05,5.11,1.43,7.44,1.37,2.32,3.45,3.96,5.81,4.82.49-.91.82-1.89.95-2.91Z"/>
          <path class="cls-1" d="M42.53,63.32h-.02c-2.44-.9-4.51-2.62-5.83-4.84-1.32-2.24-1.83-4.89-1.43-7.46v-.03s.03,0,.03,0c1.03.02,2.04.23,3,.6h.02s0,.03,0,.03c-.21,1.84.17,3.64,1.11,5.22.94,1.59,2.35,2.8,4.08,3.5h.02s0,.03,0,.03c-.13,1.01-.46,2-.96,2.92v.02ZM35.3,51.05c-.39,2.56.12,5.18,1.43,7.4,1.31,2.21,3.35,3.91,5.77,4.8.49-.91.8-1.87.94-2.86-1.73-.7-3.14-1.92-4.09-3.51-.94-1.59-1.32-3.4-1.12-5.24-.93-.36-1.92-.56-2.93-.59Z"/>
        </g>
        <g>
          <g>
            <path class="cls-1" d="M61.37,46.29c-.63-.39-1.29-.7-1.95-.96.1-.62.15-1.26.15-1.91,0-6.47-4.83-11.81-11.09-12.62v.43c4.12.78,7.24,4.39,7.24,8.74,0,2.53-1.06,4.8-2.75,6.41-1.57,1.37-5.62,2.46-5.62,2.46-.02,0-.05,0-.07,0v1.32c1.13.23,1.98,1.23,1.98,2.43,0,.27-.05.52-.13.77l1.13.73c.15-.23.31-.45.48-.67,2.76-3.45,7.7-4.41,11.57-2.05,3.71,2.26,5.18,6.81,3.69,10.73l.37.22c2.56-5.76.52-12.67-5.01-16.04Z"/>
            <path class="cls-1" d="M66.4,62.37l-.42-.25v-.02c1.51-3.98-.04-8.48-3.67-10.7-3.8-2.31-8.75-1.44-11.53,2.04h0c-.16.22-.33.43-.47.66l-.02.03-1.18-.76v-.02c.1-.27.14-.52.14-.76,0-1.16-.82-2.17-1.96-2.41h-.02v-1.37h.03s.02,0,.03,0c.01,0,.02,0,.04,0,.03,0,4.05-1.1,5.6-2.45,1.77-1.69,2.74-3.96,2.74-6.39,0-4.26-3.04-7.92-7.22-8.71h-.02v-.49h.03c3.05.4,5.86,1.89,7.91,4.2,2.07,2.33,3.21,5.33,3.21,8.45,0,.62-.05,1.25-.15,1.89.7.28,1.34.59,1.94.96h0c2.66,1.62,4.64,4.16,5.55,7.14.91,2.95.72,6.13-.53,8.94v.03ZM66.05,62.09l.32.19c2.56-5.8.41-12.66-5.01-15.97h0c-.6-.37-1.24-.68-1.95-.96h-.02s0-.03,0-.03c.1-.65.15-1.29.15-1.91,0-6.35-4.74-11.75-11.02-12.59v.37c4.2.8,7.24,4.49,7.24,8.77,0,2.45-.98,4.73-2.76,6.43-1.56,1.36-5.59,2.45-5.63,2.47-.02,0-.03,0-.04,0,0,0,0,0-.01,0v1.26c1.15.25,1.98,1.28,1.98,2.46,0,.24-.04.48-.13.75l1.09.7c.14-.22.3-.43.46-.64h0c2.8-3.51,7.79-4.39,11.61-2.06,3.65,2.23,5.21,6.74,3.72,10.75Z"/>
          </g>
          <g>
            <path class="cls-1" d="M31.38,51.57c2.77-1.71,6.11-1.71,8.8-.3,1.25.71,2.31,1.72,3.08,2.92l1.18-.68s-.01-.05-.02-.07c0,0,.07-2.35,1.08-2.99.01,0,.02-.02.03-.02.03-.02.05-.02.08-.04.24-.14.5-.21.78-.25v-1.3s-.08,0-.12-.01c0,0-.58-.06-.87-.09-4.25-.67-7.51-4.34-7.51-8.78s3.12-7.96,7.24-8.74v-.43c-6.25.82-11.08,6.15-11.08,12.62,0,.72.07,1.43.18,2.11-.66.26-1.3.58-1.92.96-5.51,3.4-7.51,10.31-4.93,16.06l.37-.23c-1.5-3.92-.06-8.47,3.64-10.75Z"/>
            <path class="cls-1" d="M27.36,62.59v-.03c-1.28-2.81-1.48-5.98-.59-8.93.9-2.98,2.86-5.53,5.51-7.17.59-.36,1.21-.68,1.9-.96-.12-.71-.18-1.42-.18-2.09,0-3.12,1.14-6.12,3.21-8.45,2.05-2.31,4.86-3.8,7.91-4.2h.03s0,.48,0,.48h-.02c-4.18.79-7.22,4.46-7.22,8.72s3.15,8.07,7.48,8.75c.29.03.87.09.87.09.02,0,.04,0,.06,0,.02,0,.04,0,.06,0h.03v1.35h-.03c-.3.05-.55.13-.77.25-.01,0-.03.01-.04.02-.01,0-.03.01-.04.02,0,0-.01,0-.02,0,0,0-.01,0-.02.01-.95.6-1.05,2.83-1.06,2.96,0,.01,0,.02,0,.03,0,.01,0,.02.01.03v.02s-1.21.71-1.21.71l-.02-.02c-.77-1.2-1.84-2.21-3.07-2.91-2.76-1.45-6.12-1.33-8.77.3h0c-3.62,2.24-5.15,6.74-3.63,10.72v.02s-.41.26-.41.26ZM45.09,30.82c-6.29.84-11.02,6.24-11.02,12.59,0,.68.06,1.39.18,2.11v.02s-.02,0-.02,0c-.7.28-1.32.59-1.92.96-5.4,3.33-7.52,10.2-4.93,15.99l.31-.19c-1.52-4,.02-8.52,3.66-10.77h0c1.34-.83,2.88-1.29,4.45-1.32,1.52-.04,3.04.32,4.38,1.02,1.24.71,2.3,1.71,3.08,2.91l1.13-.65s0-.01,0-.02c0-.01,0-.02,0-.03h0s0-.01,0-.01c0-.1.08-2.38,1.09-3.01,0,0,.01,0,.02,0,0,0,.01,0,.02-.01.01,0,.03-.02.04-.02.01,0,.02-.01.04-.02.22-.12.47-.21.76-.25v-1.24s-.03,0-.04,0c-.02,0-.04,0-.06,0,0,0-.58-.06-.88-.09-2.08-.33-3.99-1.39-5.37-2.98-1.4-1.62-2.17-3.68-2.17-5.82,0-4.28,3.04-7.96,7.24-8.77v-.37Z"/>
          </g>
          <g>
            <path class="cls-1" d="M53.49,66.59c-4.14-2.34-5.67-7.51-3.57-11.72l-1.18-.68s-.57.45-.85.61c-.13.08-.27.14-.4.18-.59.14-1.18-.04-1.81-.25-.26-.08-.81-.39-.81-.39-.06-.06-.12-.11-.17-.18l-1.12.64c2.17,4.21.68,9.42-3.47,11.8-3.77,2.16-8.46,1.26-11.19-1.93l-.37.21c3.82,5.02,10.85,6.56,16.47,3.33.64-.37,1.23-.79,1.78-1.25.55.45,1.15.87,1.79,1.24,5.63,3.19,12.66,1.61,16.45-3.42l-.37-.21c-2.71,3.2-7.39,4.14-11.18,1.99Z"/>
            <path class="cls-1" d="M38.69,69.96c-.86,0-1.73-.09-2.59-.27-3.02-.63-5.71-2.32-7.58-4.77l-.02-.03.42-.24.02.02c2.77,3.23,7.45,4.05,11.15,1.93,4.12-2.37,5.64-7.53,3.46-11.76v-.03s1.16-.67,1.16-.67l.02.02s.07.08.12.13c.02.02.03.03.05.05.05.03.56.3.8.38.59.19,1.2.39,1.79.24.14-.05.27-.11.39-.18.28-.16.82-.59.84-.61l.02-.02h.02s1.21.7,1.21.7v.03c-2.12,4.22-.56,9.35,3.54,11.68,3.71,2.1,8.39,1.26,11.14-1.99l.02-.02.43.24-.02.03c-1.85,2.46-4.53,4.17-7.55,4.81-3.05.65-6.22.16-8.94-1.38-.6-.34-1.2-.75-1.78-1.22-.57.47-1.17.89-1.77,1.23-1.95,1.12-4.13,1.69-6.34,1.69ZM28.6,64.92c3.85,5.04,10.9,6.46,16.41,3.3.6-.35,1.2-.77,1.78-1.24l.02-.02.02.02c.58.48,1.18.89,1.79,1.23,5.52,3.13,12.56,1.67,16.39-3.39l-.32-.18c-2.77,3.26-7.47,4.09-11.2,1.98h0c-4.12-2.34-5.7-7.48-3.59-11.73l-1.14-.65c-.1.09-.58.46-.84.6-.13.07-.26.13-.41.19-.61.15-1.23-.05-1.83-.24-.26-.08-.79-.38-.81-.39h0s-.03-.04-.05-.06c-.04-.04-.07-.07-.1-.11l-1.08.62c2.18,4.25.65,9.44-3.5,11.81-3.71,2.13-8.42,1.32-11.21-1.92l-.32.18Z"/>
          </g>
        </g>
      </g>
    </g>
  </g>
</svg>