<?xml version="1.0" encoding="UTF-8"?>
<svg id="Capa_2" data-name="Capa 2" xmlns="http://www.w3.org/2000/svg" viewBox="0 0 82.49 82.49">
  <defs>
    <style>
      .cls-1 {
        fill: #fe0000;
      }

      .cls-2 {
        fill-rule: evenodd;
      }
    </style>
  </defs>
  <g id="Capa_1-2" data-name="Capa 1">
    <g>
      <g>
        <path class="cls-2" d="M41.24,36.24l-1.69,3.77h3.39l-1.7-3.77h0ZM47.28,40.2l-1.23,3.97h-9.62l-1.23-3.97c-2.59-1.99-4.26-5.17-4.26-8.75,0-5.93,4.59-10.75,10.3-10.92,5.72.17,10.3,4.99,10.3,10.92,0,3.58-1.67,6.76-4.26,8.75h0ZM46.04,30.99c1.71,0,3.1,1.39,3.1,3.1s-1.38,3.1-3.1,3.1-3.09-1.39-3.09-3.1,1.38-3.1,3.09-3.1h0ZM36.45,30.99c1.71,0,3.1,1.39,3.1,3.1s-1.39,3.1-3.1,3.1-3.1-1.39-3.1-3.1,1.39-3.1,3.1-3.1Z"/>
        <polygon class="cls-2" points="36.19 45.19 46.31 45.19 47.65 42.7 48.57 42.7 48.07 47.13 44.42 51.82 38.07 51.82 34.42 47.13 33.92 42.7 34.84 42.7 36.19 45.19"/>
        <g>
          <path class="cls-2" d="M33.05,43.61l.03-3-3.86-2.55c-.26-.17-.79-.81-.63-1.08.62-1.05.31-2.42-.72-3.1-1.06-.7-2.5-.41-3.2.66-.36.55-.46,1.19-.32,1.79-.6.11-1.16.45-1.52,1-.7,1.06-.41,2.5.66,3.2,1.02.67,2.38.43,3.11-.53.18-.24.98,0,1.23.17l5.22,3.45Z"/>
          <path class="cls-2" d="M49.44,43.61l-.03-3,3.86-2.55c.26-.17.79-.81.63-1.08-.62-1.05-.31-2.42.72-3.1,1.07-.7,2.5-.41,3.2.66.36.55.46,1.19.32,1.79.6.11,1.16.45,1.52,1,.7,1.06.41,2.5-.66,3.2-1.02.67-2.38.43-3.11-.53-.18-.24-.98,0-1.23.17l-5.23,3.45Z"/>
        </g>
        <g>
          <path class="cls-2" d="M33.05,45.23l.03,3-3.86,2.55c-.26.17-.79.81-.63,1.07.62,1.05.31,2.42-.72,3.1-1.06.7-2.5.41-3.2-.65-.36-.55-.46-1.2-.32-1.79-.6-.11-1.16-.45-1.52-1-.7-1.06-.41-2.5.66-3.2,1.02-.67,2.38-.43,3.11.53.18.24.98,0,1.23-.17l5.22-3.45Z"/>
          <path class="cls-2" d="M49.44,45.23l-.03,3,3.86,2.55c.26.17.79.81.63,1.07-.62,1.05-.31,2.42.72,3.1,1.07.7,2.5.41,3.2-.65.36-.55.46-1.2.32-1.79.6-.11,1.16-.45,1.52-1,.7-1.06.41-2.5-.66-3.2-1.02-.67-2.38-.43-3.11.53-.18.24-.98,0-1.23-.17l-5.23-3.45Z"/>
        </g>
      </g>
      <path class="cls-1" d="M41.24,82.49c-1.54,0-3.08-.59-4.25-1.76L1.76,45.5c-1.13-1.13-1.76-2.64-1.76-4.25s.62-3.12,1.76-4.25L37,1.76c2.34-2.34,6.16-2.34,8.5,0l35.24,35.24c1.13,1.13,1.76,2.64,1.76,4.25s-.62,3.12-1.76,4.25l-35.24,35.24c-1.17,1.17-2.71,1.76-4.25,1.76ZM41.25,5c-.26,0-.52.1-.71.29L5.29,40.53c-.25.25-.29.56-.29.71s.04.46.29.71l35.24,35.24c.39.39,1.04.39,1.43,0l35.24-35.24c.25-.25.29-.56.29-.71s-.04-.46-.29-.71L41.96,5.29c-.19-.19-.45-.29-.71-.29Z"/>
    </g>
  </g>
</svg>