<?xml version="1.0" encoding="UTF-8"?>
<svg id="Capa_2" data-name="Capa 2" xmlns="http://www.w3.org/2000/svg" viewBox="0 0 24.5 23.42">
  <defs>
    <style>
      .cls-1 {
        fill: #1d1d1b;
      }
    </style>
  </defs>
  <g id="Capa_1-2" data-name="Capa 1">
    <g>
      <path class="cls-1" d="M.01,8.21C-.16,5.64,1.34,3.7,3.81,3.37c.46-.06.95-.02,1.4.09.21.05.49.34.53.56.38,2.14.71,4.28,1.05,6.42.07.41-.07.71-.45.89-.11.05-.22.12-.34.17-.86.38-.93.59-.48,1.43,1.22,2.3,3,4.02,5.33,5.16.64.31.93.19,1.2-.47.07-.17.15-.35.24-.51.18-.36.46-.47.86-.41,2.1.31,4.2.6,6.31.9.45.06.68.3.76.76.47,2.71-1.5,5.06-4.28,5.07-7.81.01-14.55-5.74-15.73-13.42-.09-.59-.13-1.19-.19-1.78Z"/>
      <path class="cls-1" d="M11.55,0c6.12.06,11.64,4.54,12.92,10.49.16.73-.13,1.27-.74,1.4-.59.12-1.06-.24-1.24-.94-1.08-4.22-3.69-7.03-7.82-8.42-1.19-.4-2.42-.53-3.67-.52-.75,0-1.18-.34-1.2-.96-.01-.65.42-1.03,1.18-1.04.19,0,.38,0,.57,0Z"/>
      <path class="cls-1" d="M11.53,4.19c4.15.25,7.79,3.21,8.81,7.19.16.64-.12,1.18-.69,1.35-.56.17-1.11-.16-1.3-.78-1.09-3.5-3.57-5.44-7.26-5.67-.6-.04-.98-.32-1.07-.8-.09-.47.11-.97.56-1.13.3-.11.64-.1.96-.15Z"/>
      <path class="cls-1" d="M11.25,8.41c2.05.07,4.44,1.93,5,3.91.15.55-.1,1.09-.61,1.27-.63.23-1.22.03-1.46-.56-.46-1.09-1.21-1.86-2.33-2.25-.28-.1-.58-.13-.87-.2-.57-.13-.9-.64-.83-1.25.07-.58.51-.94,1.11-.92Z"/>
    </g>
  </g>
</svg>