<?xml version="1.0" encoding="UTF-8"?>
<svg id="Capa_2" data-name="Capa 2" xmlns="http://www.w3.org/2000/svg" viewBox="0 0 277.16 300.08">
  <defs>
    <style>
      .cls-1 {
        fill: rgba(181, 204, 23, .35);
      }
    </style>
  </defs>
  <g id="Capa_1-2" data-name="Capa 1">
    <path class="cls-1" d="M274.81,202.1c-9.2,5.2-19.08,7.76-29.59,6.48-6.81-.83-13.58-2.28-20.22-4-12.59-3.26-25.09-6.77-38.28-6.44-19.15.48-34.51,7.87-45.23,23.67,5.27-20.24,8.77-40.82,9.84-61.76,1.26-24.72-.87-49.02-9.5-72.48-6.26-17.02-15.48-32.21-28.28-45.03C88.18,17.14,56.91,4.27,21.71.02c-.51-.06-1.03.04-1.73.08.36.85.6,1.44.86,2.02,5.19,11.63,8.68,23.71,9.63,36.47,1.19,15.86-1.52,31.21-6.4,46.19-4.71,14.47-9.96,28.77-14.74,43.23C3.29,146.32-.36,165.06.03,184.46c.34,16.83,3.7,32.91,11.64,47.88,9.11,17.17,22.45,30.37,38.71,40.76,18.51,11.82,38.83,19.13,60.16,23.88,9.2,2.05,18.44,3.68,27.93,2.91,1.27-.1,2.54-.32,3.8-.49-.43-.59-.83-.71-1.23-.79-7.82-1.5-15.25-4.12-22.19-8.01-16.12-9.01-28.01-21.9-35.64-38.76-4.34-9.58-5.85-19.78-6.83-30.08-1.13-11.94.48-23.78,1.74-35.63,1.57-14.77,2.24-29.5-2.43-44.17.22.17.44.34.67.5.47.33.96.64,1.41.98,5.15,3.93,8.77,9.05,11.52,14.83,4.18,8.81,6.07,18.25,7.12,27.84,1.53,13.9,2.68,27.84,4.18,41.74.88,8.11,3.16,15.91,6.34,23.41,5.36,12.64,13.45,23.46,22.51,33.64.33.37.74.67,1.58,1.42-.46-1.39-.74-2.12-.94-2.88-1.81-6.94-2.91-13.91-.74-21,.22-.72.45-1.43.67-2.14,3.84-10.24,12.67-17.46,24.53-19.73,8.93-1.71,17.58-.36,26.24,1.51,3.95.85,7.87,1.78,12.34.12-1.01,2.6-2.7,3.9-4.69,4.42-4.77,1.24-9.57,2.42-14.43,3.21-6.44,1.05-13.01,1.34-19.39,2.62-13.15,2.64-19.72,12.73-25.55,23.5,4.48-3.16,9.55-3.91,14.78-3.63,5.65.3,11.31.71,16.93,1.38,13.12,1.55,26.21,3.12,39.47,2.12,21.15-1.59,38.81-10.1,52.52-26.44,9.5-11.32,15.9-24.36,20.89-38.15,1.18-3.27,2.25-6.58,3.54-10.37-1.13.59-1.75.89-2.35,1.22Z"/>
  </g>
</svg>