<?xml version="1.0" encoding="UTF-8"?>
<svg id="Capa_2" data-name="Capa 2" xmlns="http://www.w3.org/2000/svg" viewBox="0 0 28.29 30.62">
  <defs>
    <style>
      .cls-1 {
        fill: #b5cc17;
      }
    </style>
  </defs>
  <g id="Capa_1-2" data-name="Capa 1">
    <path class="cls-1" d="M28.05,20.63c-.94.53-1.95.79-3.02.66-.69-.08-1.39-.23-2.06-.41-1.28-.33-2.56-.69-3.91-.66-1.95.05-3.52.8-4.62,2.42.54-2.07.9-4.17,1-6.3.13-2.52-.09-5-.97-7.4-.64-1.74-1.58-3.29-2.89-4.6C9,1.75,5.81.44,2.22,0c-.05,0-.11,0-.18,0,.04.09.06.15.09.21.53,1.19.89,2.42.98,3.72.12,1.62-.15,3.18-.65,4.71-.48,1.48-1.02,2.94-1.5,4.41C.34,14.93-.04,16.85,0,18.83c.03,1.72.38,3.36,1.19,4.89.93,1.75,2.29,3.1,3.95,4.16,1.89,1.21,3.96,1.95,6.14,2.44.94.21,1.88.38,2.85.3.13-.01.26-.03.39-.05-.04-.06-.08-.07-.13-.08-.8-.15-1.56-.42-2.27-.82-1.64-.92-2.86-2.23-3.64-3.96-.44-.98-.6-2.02-.7-3.07-.12-1.22.05-2.43.18-3.64.16-1.51.23-3.01-.25-4.51.02.02.05.03.07.05.05.03.1.06.14.1.53.4.9.92,1.18,1.51.43.9.62,1.86.73,2.84.16,1.42.27,2.84.43,4.26.09.83.32,1.62.65,2.39.55,1.29,1.37,2.39,2.3,3.43.03.04.08.07.16.15-.05-.14-.08-.22-.1-.29-.18-.71-.3-1.42-.08-2.14.02-.07.05-.15.07-.22.39-1.05,1.29-1.78,2.5-2.01.91-.17,1.79-.04,2.68.15.4.09.8.18,1.26.01-.1.27-.28.4-.48.45-.49.13-.98.25-1.47.33-.66.11-1.33.14-1.98.27-1.34.27-2.01,1.3-2.61,2.4.46-.32.97-.4,1.51-.37.58.03,1.15.07,1.73.14,1.34.16,2.68.32,4.03.22,2.16-.16,3.96-1.03,5.36-2.7.97-1.16,1.62-2.49,2.13-3.89.12-.33.23-.67.36-1.06-.12.06-.18.09-.24.12Z"/>
  </g>
</svg>