<?xml version="1.0" encoding="UTF-8"?>
<svg id="Capa_2" data-name="Capa 2" xmlns="http://www.w3.org/2000/svg" viewBox="0 0 262.94 76.45">
  <defs>
    <style>
      .cls-1 {
        fill: #b5cc17;
      }

      .cls-2 {
        fill: #1d1d1b;
      }
    </style>
  </defs>
  <g id="Capa_1-2" data-name="Capa 1">
    <g>
      <path class="cls-2" d="M5.8,47.25c.12,5.56,3.98,9.48,9.95,9.48,4.74,0,7.96-2.57,9.01-6.55h5.68c-1.29,7.31-6.73,11.64-14.8,11.64C6.39,61.82.24,55.73.24,46.6s6.14-15.21,15.39-15.21,14.86,5.38,14.8,14.22v1.64H5.8ZM24.64,42.97c-.88-4.27-4.15-6.85-8.95-6.85s-8.31,2.87-9.48,6.85h18.43Z"/>
      <path class="cls-2" d="M50.45,56.61c4.86,0,8.02-2.69,9.13-6.79h5.68c-1.29,7.31-6.73,12-14.8,12-9.25,0-15.39-6.09-15.39-15.21s6.14-15.21,15.39-15.21c8.08,0,13.52,4.68,14.8,12h-5.68c-1.11-4.1-4.27-6.79-9.13-6.79-5.91,0-9.83,4.04-9.83,10.01s3.92,10.01,9.83,10.01Z"/>
      <path class="cls-2" d="M117.98,31.33c4.33,0,7.78.47,10.94,1.64v5.21c-2.05-.76-6.38-2.05-11.53-2.05-4.8,0-7.14,1.17-7.14,3.39,0,5.91,19.9,2.63,19.9,13.17,0,5.73-4.51,9.19-13.28,9.19-4.33,0-7.78-.47-10.94-1.64v-5.21c2.05.76,6.44,2.05,11.53,2.05,4.8,0,7.08-1.76,7.08-3.98,0-5.85-19.84-2.63-19.84-13.17,0-5.79,4.56-8.6,13.28-8.6Z"/>
      <path class="cls-2" d="M139.69,47.25c.12,5.56,3.98,9.48,9.95,9.48,4.74,0,7.96-2.57,9.01-6.55h5.68c-1.29,7.31-6.73,11.64-14.8,11.64-9.25,0-15.39-6.09-15.39-15.21s6.14-15.21,15.39-15.21,14.86,5.38,14.8,14.22v1.64h-24.64ZM158.54,42.97c-.88-4.27-4.15-6.85-8.95-6.85s-8.31,2.87-9.48,6.85h18.43Z"/>
      <path class="cls-2" d="M183.7,31.39c8.72,0,14.51,5.38,14.51,13.11s-4.45,10.88-7.55,10.88v.53c3.28,0,7.84,1.99,7.84,8.13,0,7.78-5.5,12.41-14.51,12.41s-14.51-4.97-14.51-13.75h5.56c0,5.62,3.1,8.54,8.95,8.54s8.95-2.57,8.95-7.43c0-5.5-5.85-5.5-9.25-5.5-8.72,0-14.51-5.38-14.51-13.46s5.79-13.46,14.51-13.46ZM183.7,53.1c5.73,0,8.95-2.28,8.95-8.25,0-5.15-3.45-8.25-8.95-8.25s-8.95,3.16-8.95,8.25,3.45,8.25,8.95,8.25ZM196.34,25.59c2.28,0,3.8,1.4,3.8,3.45s-1.52,3.45-3.8,3.45-3.75-1.35-3.75-3.45,1.46-3.45,3.75-3.45Z"/>
      <path class="cls-2" d="M216,31.33c4.33,0,7.78.47,10.94,1.64v5.21c-2.05-.76-6.38-2.05-11.53-2.05-4.8,0-7.14,1.17-7.14,3.39,0,5.91,19.9,2.63,19.9,13.17,0,5.73-4.51,9.19-13.28,9.19-4.33,0-7.78-.47-10.94-1.64v-5.21c2.05.76,6.44,2.05,11.53,2.05,4.8,0,7.08-1.76,7.08-3.98,0-5.85-19.84-2.63-19.84-13.17,0-5.79,4.56-8.6,13.28-8.6Z"/>
      <path class="cls-2" d="M247.55,31.39c9.25,0,15.39,6.09,15.39,15.21v14.63h-5.56v-5.79l-.59.06v.53c0,2.34-3.51,5.79-10.42,5.79-8.43,0-14.22-5.91-14.22-14.86,0-9.48,6.09-15.57,15.39-15.57ZM247.37,56.61c7.26,0,9.95-4.1,9.95-10.01s-3.75-10.01-9.77-10.01-9.83,4.04-9.83,10.01,3.63,10.01,9.66,10.01Z"/>
      <path class="cls-2" d="M2.86,70.16h.31l2.85,6.11-.03.06h-.67l-.64-1.39H1.33l-.64,1.39H.03l-.03-.06,2.86-6.11ZM3.01,71.28l-1.4,3.05h2.79l-1.39-3.05Z"/>
      <path class="cls-2" d="M6.76,73.92v-3.76h.69v3.74c0,.57.17,1.04.52,1.39.35.35.8.53,1.37.53s1.03-.18,1.38-.53c.35-.35.52-.81.52-1.39v-3.74h.66v3.76c0,.76-.23,1.37-.7,1.83-.47.46-1.09.69-1.86.69s-1.4-.23-1.87-.69c-.48-.46-.71-1.07-.71-1.83Z"/>
      <path class="cls-2" d="M17.62,70.77h-2.05v5.56h-.68v-5.56h-2.05v-.61h4.78v.61Z"/>
      <path class="cls-2" d="M23.42,75.53c-.62.61-1.4.92-2.32.92s-1.7-.31-2.32-.92c-.62-.61-.94-1.37-.94-2.29s.31-1.67.94-2.29c.63-.61,1.4-.91,2.32-.91s1.69.3,2.32.91c.62.61.93,1.37.93,2.29s-.31,1.67-.93,2.29ZM19.27,75.09c.48.48,1.1.73,1.83.73s1.35-.24,1.83-.73c.49-.48.73-1.1.73-1.84s-.24-1.36-.73-1.84c-.49-.48-1.1-.73-1.83-.73s-1.35.24-1.83.73-.73,1.1-.73,1.84.24,1.36.73,1.84Z"/>
      <path class="cls-2" d="M29.36,70.77h-2.05v5.56h-.68v-5.56h-2.05v-.61h4.78v.61Z"/>
      <path class="cls-2" d="M34.87,71.95c0,.44-.12.81-.35,1.1-.23.29-.58.48-1.03.58l1.39,2.64-.03.06h-.67l-1.37-2.61h-1.74v2.61h-.68v-6.17h2.31c.7,0,1.24.16,1.61.47.38.31.56.75.56,1.32ZM32.87,70.77h-1.81v2.36h1.81c.4,0,.72-.11.95-.33.23-.22.34-.51.34-.86s-.11-.63-.34-.85c-.23-.22-.54-.32-.95-.32Z"/>
      <path class="cls-2" d="M38.36,70.16h.31l2.85,6.11-.03.06h-.67l-.64-1.39h-3.35l-.64,1.39h-.65l-.03-.06,2.86-6.11ZM38.5,71.28l-1.4,3.05h2.79l-1.39-3.05Z"/>
      <path class="cls-2" d="M46.85,75.07v-4.91h.67v6.26h-.31l-4-4.9v4.81h-.66v-6.17h.3l4,4.91Z"/>
      <path class="cls-2" d="M51.1,76.45c-.48,0-.94-.11-1.37-.32-.44-.22-.79-.53-1.05-.91v-.06l.44-.38h.06c.24.33.53.58.87.76.34.19.67.28,1.01.28.45,0,.8-.1,1.07-.3.26-.2.39-.45.39-.76,0-.18-.03-.33-.1-.46-.06-.13-.17-.24-.33-.34-.17-.1-.31-.18-.41-.22-.11-.05-.3-.12-.58-.21-.28-.09-.48-.16-.59-.21-.22-.09-.4-.16-.52-.23-.13-.06-.28-.16-.45-.29-.35-.25-.53-.62-.53-1.11s.19-.88.56-1.19c.37-.31.86-.46,1.46-.46.87,0,1.55.32,2.03.95v.06l-.42.39h-.06c-.41-.51-.93-.77-1.56-.77-.39,0-.7.09-.95.26-.25.18-.37.41-.37.7s.1.49.29.64c.19.14.49.29.9.45.08.03.21.08.39.14.21.07.34.12.41.15.09.03.22.08.38.15.16.07.28.14.37.19.25.17.44.35.55.54.14.24.21.51.21.84,0,.52-.19.93-.58,1.25-.4.32-.91.47-1.54.47Z"/>
      <path class="cls-2" d="M54.52,70.16h2.22c.7,0,1.23.16,1.61.48s.57.78.57,1.38-.19,1.06-.57,1.38-.91.48-1.61.48h-1.54v2.44h-.68v-6.17ZM55.2,73.3h1.72c.41,0,.73-.11.95-.33s.34-.53.34-.94-.11-.72-.34-.94-.54-.33-.95-.33h-1.72v2.54Z"/>
      <path class="cls-2" d="M65.21,75.53c-.62.61-1.4.92-2.32.92s-1.7-.31-2.32-.92-.94-1.37-.94-2.29.31-1.67.94-2.29c.63-.61,1.4-.91,2.32-.91s1.69.3,2.32.91c.62.61.93,1.37.93,2.29s-.31,1.67-.93,2.29ZM61.06,75.09c.48.48,1.1.73,1.83.73s1.35-.24,1.83-.73c.49-.48.73-1.1.73-1.84s-.24-1.36-.73-1.84-1.1-.73-1.83-.73-1.35.24-1.83.73-.73,1.1-.73,1.84.24,1.36.73,1.84Z"/>
      <path class="cls-2" d="M71.96,71.95c0,.44-.12.81-.35,1.1-.23.29-.58.48-1.03.58l1.39,2.64-.03.06h-.67l-1.37-2.61h-1.74v2.61h-.68v-6.17h2.31c.7,0,1.24.16,1.61.47.38.31.56.75.56,1.32ZM69.96,70.77h-1.81v2.36h1.81c.4,0,.72-.11.95-.33s.34-.51.34-.86-.11-.63-.34-.85c-.23-.22-.54-.32-.95-.32Z"/>
      <path class="cls-2" d="M77.27,70.77h-2.05v5.56h-.68v-5.56h-2.05v-.61h4.78v.61Z"/>
      <path class="cls-2" d="M82.38,70.16v.61h-3.42v2.15h2.73v.61h-2.73v2.2h3.42v.61h-4.1v-6.17h4.1Z"/>
      <path class="cls-2" d="M85.51,76.45c-.48,0-.94-.11-1.37-.32-.44-.22-.79-.53-1.05-.91v-.06l.44-.38h.06c.24.33.53.58.87.76.34.19.68.28,1.01.28.45,0,.8-.1,1.07-.3.26-.2.39-.45.39-.76,0-.18-.03-.33-.1-.46-.06-.13-.17-.24-.33-.34-.17-.1-.31-.18-.41-.22-.11-.05-.3-.12-.58-.21-.28-.09-.48-.16-.59-.21-.22-.09-.4-.16-.52-.23-.13-.06-.28-.16-.45-.29-.35-.25-.53-.62-.53-1.11s.19-.88.56-1.19.86-.46,1.46-.46c.87,0,1.55.32,2.03.95v.06l-.42.39h-.06c-.41-.51-.93-.77-1.56-.77-.39,0-.7.09-.95.26-.25.18-.37.41-.37.7s.1.49.29.64c.19.14.49.29.9.45.08.03.21.08.39.14.21.07.34.12.41.15.09.03.22.08.38.15.16.07.28.14.37.19.25.17.44.35.55.54.14.24.21.51.21.84,0,.52-.19.93-.58,1.25-.4.32-.91.47-1.54.47Z"/>
      <path class="cls-2" d="M95.37,70.16v.61h-3.42v2.15h2.73v.61h-2.73v2.2h3.42v.61h-4.1v-6.17h4.1Z"/>
      <path class="cls-2" d="M98.49,76.45c-.48,0-.94-.11-1.37-.32-.44-.22-.79-.53-1.05-.91v-.06l.44-.38h.06c.24.33.53.58.87.76.34.19.68.28,1.01.28.45,0,.8-.1,1.07-.3.26-.2.39-.45.39-.76,0-.18-.03-.33-.1-.46-.06-.13-.17-.24-.33-.34-.17-.1-.31-.18-.41-.22-.11-.05-.3-.12-.58-.21-.28-.09-.48-.16-.59-.21-.22-.09-.4-.16-.52-.23-.13-.06-.28-.16-.45-.29-.35-.25-.53-.62-.53-1.11s.19-.88.56-1.19.86-.46,1.46-.46c.87,0,1.55.32,2.03.95v.06l-.42.39h-.06c-.41-.51-.93-.77-1.56-.77-.39,0-.7.09-.95.26-.25.18-.37.41-.37.7s.1.49.29.64c.19.14.49.29.9.45.08.03.21.08.39.14.21.07.34.12.41.15.09.03.22.08.38.15.16.07.28.14.37.19.25.17.44.35.55.54.14.24.21.51.21.84,0,.52-.19.93-.58,1.25-.4.32-.91.47-1.54.47Z"/>
      <path class="cls-2" d="M101.91,70.16h2.22c.7,0,1.23.16,1.61.48.38.32.57.78.57,1.38s-.19,1.06-.57,1.38c-.38.32-.91.48-1.61.48h-1.54v2.44h-.68v-6.17ZM102.59,73.3h1.72c.41,0,.73-.11.95-.33s.34-.53.34-.94-.11-.72-.34-.94-.54-.33-.95-.33h-1.72v2.54Z"/>
      <path class="cls-2" d="M111.58,70.16v.61h-3.42v2.15h2.73v.61h-2.73v2.2h3.42v.61h-4.1v-6.17h4.1Z"/>
      <path class="cls-2" d="M115.44,76.45c-.89,0-1.64-.31-2.26-.92s-.93-1.37-.93-2.29.31-1.67.93-2.29c.62-.61,1.37-.91,2.26-.91.51,0,.99.11,1.43.33.44.22.81.52,1.11.91v.06l-.44.34h-.06c-.23-.32-.52-.57-.88-.74s-.74-.26-1.15-.26c-.72,0-1.31.24-1.79.73-.48.48-.72,1.1-.72,1.84s.24,1.36.72,1.84c.48.48,1.07.73,1.79.73.41,0,.79-.09,1.15-.26s.65-.42.88-.74h.06l.44.34v.06c-.3.39-.67.69-1.11.91-.44.22-.92.33-1.43.33Z"/>
      <path class="cls-2" d="M119.18,76.33v-6.17h.68v6.17h-.68Z"/>
      <path class="cls-2" d="M123.76,70.16h.31l2.85,6.11-.03.06h-.67l-.64-1.39h-3.35l-.64,1.39h-.65l-.03-.06,2.86-6.11ZM123.9,71.28l-1.4,3.05h2.79l-1.39-3.05Z"/>
      <path class="cls-2" d="M128.63,75.72h3.06v.61h-3.74v-6.17h.68v5.56Z"/>
      <path class="cls-2" d="M132.73,76.33v-6.17h.68v6.17h-.68Z"/>
      <path class="cls-2" d="M139.16,70.46l-3.66,5.28h3.87v.59h-4.83v-.31l3.66-5.27h-3.46v-.59h4.43v.3Z"/>
      <path class="cls-2" d="M142.59,70.16h.31l2.85,6.11-.03.06h-.67l-.64-1.39h-3.35l-.64,1.39h-.65l-.03-.06,2.86-6.11ZM142.73,71.28l-1.4,3.05h2.79l-1.39-3.05Z"/>
      <path class="cls-2" d="M146.78,70.16h2.35c.96,0,1.74.28,2.33.84.59.56.89,1.31.89,2.23s-.29,1.68-.88,2.24c-.59.57-1.36.85-2.33.85h-2.35v-6.17ZM147.46,75.72h1.67c.76,0,1.37-.23,1.83-.68.46-.45.69-1.05.69-1.8s-.23-1.34-.69-1.8c-.46-.45-1.07-.68-1.83-.68h-1.67v4.95Z"/>
      <path class="cls-2" d="M158.8,75.53c-.62.61-1.4.92-2.32.92s-1.7-.31-2.32-.92-.94-1.37-.94-2.29.31-1.67.94-2.29c.63-.61,1.4-.91,2.32-.91s1.69.3,2.32.91c.62.61.93,1.37.93,2.29s-.31,1.67-.93,2.29ZM154.65,75.09c.48.48,1.1.73,1.83.73s1.35-.24,1.83-.73c.49-.48.73-1.1.73-1.84s-.24-1.36-.73-1.84-1.1-.73-1.83-.73-1.35.24-1.83.73-.73,1.1-.73,1.84.24,1.36.73,1.84Z"/>
      <path class="cls-2" d="M162.87,76.45c-.48,0-.94-.11-1.37-.32-.44-.22-.79-.53-1.05-.91v-.06l.44-.38h.06c.24.33.53.58.87.76.34.19.68.28,1.01.28.45,0,.8-.1,1.07-.3.26-.2.39-.45.39-.76,0-.18-.03-.33-.1-.46-.06-.13-.17-.24-.33-.34-.17-.1-.31-.18-.41-.22-.11-.05-.3-.12-.58-.21-.28-.09-.48-.16-.59-.21-.22-.09-.4-.16-.52-.23-.13-.06-.28-.16-.45-.29-.35-.25-.53-.62-.53-1.11s.19-.88.56-1.19.86-.46,1.46-.46c.87,0,1.55.32,2.03.95v.06l-.42.39h-.06c-.41-.51-.93-.77-1.56-.77-.39,0-.7.09-.95.26-.25.18-.37.41-.37.7s.1.49.29.64c.19.14.49.29.9.45.08.03.21.08.39.14.21.07.34.12.41.15.09.03.22.08.38.15.16.07.28.14.37.19.25.17.44.35.55.54.14.24.21.51.21.84,0,.52-.19.93-.58,1.25-.4.32-.91.47-1.54.47Z"/>
      <path class="cls-1" d="M85.27,31.39c9.25,0,15.39,6.09,15.39,15.21s-6.14,15.21-15.39,15.21-15.39-6.09-15.39-15.21,6.14-15.21,15.39-15.21ZM85.27,56.61c5.91,0,9.83-4.04,9.83-10.01s-3.92-10.01-9.83-10.01-9.83,4.04-9.83,10.01,3.92,10.01,9.83,10.01Z"/>
      <path class="cls-1" d="M90.51,21.64c-.99.56-2.04.83-3.17.69-.73-.09-1.45-.24-2.17-.43-1.35-.35-2.69-.73-4.1-.69-2.05.05-3.7.84-4.84,2.53.56-2.17.94-4.37,1.05-6.61.13-2.65-.09-5.25-1.02-7.76-.67-1.82-1.66-3.45-3.03-4.82C70.53,1.84,67.18.46,63.41,0c-.05,0-.11,0-.19,0,.04.09.06.15.09.22.56,1.25.93,2.54,1.03,3.91.13,1.7-.16,3.34-.68,4.95-.5,1.55-1.07,3.08-1.58,4.63-.65,1.96-1.04,3.97-1,6.05.04,1.8.4,3.52,1.25,5.13.98,1.84,2.4,3.25,4.14,4.36,1.98,1.27,4.16,2.05,6.44,2.56.98.22,1.97.39,2.99.31.14-.01.27-.03.41-.05-.05-.06-.09-.08-.13-.08-.84-.16-1.63-.44-2.38-.86-1.73-.96-3-2.34-3.82-4.15-.46-1.03-.63-2.12-.73-3.22-.12-1.28.05-2.55.19-3.81.17-1.58.24-3.16-.26-4.73.02.02.05.04.07.05.05.04.1.07.15.11.55.42.94.97,1.23,1.59.45.94.65,1.95.76,2.98.16,1.49.29,2.98.45,4.47.09.87.34,1.7.68,2.51.57,1.35,1.44,2.51,2.41,3.6.04.04.08.07.17.15-.05-.15-.08-.23-.1-.31-.19-.74-.31-1.49-.08-2.25.02-.08.05-.15.07-.23.41-1.1,1.36-1.87,2.63-2.11.96-.18,1.88-.04,2.81.16.42.09.84.19,1.32.01-.11.28-.29.42-.5.47-.51.13-1.03.26-1.55.34-.69.11-1.39.14-2.08.28-1.41.28-2.11,1.36-2.74,2.52.48-.34,1.02-.42,1.58-.39.61.03,1.21.08,1.81.15,1.4.17,2.81.33,4.23.23,2.26-.17,4.16-1.08,5.62-2.83,1.02-1.21,1.7-2.61,2.24-4.09.13-.35.24-.7.38-1.11-.12.06-.19.09-.25.13Z"/>
    </g>
  </g>
</svg>