<?xml version="1.0" encoding="UTF-8"?>
<svg id="Capa_2" data-name="Capa 2" xmlns="http://www.w3.org/2000/svg" viewBox="0 0 137.22 109.78">
  <defs>
    <style>
      .cls-1 {
        fill: #97c125;
      }
    </style>
  </defs>
  <g id="Capa_1-2" data-name="Capa 1">
    <path class="cls-1" d="M108.4,109.78H28.82c-8.5,0-13.17,0-17.58-2.24-3.9-1.99-7.01-5.1-8.99-8.99C0,94.13,0,89.45,0,80.96V28.82C0,28.39,0,27.97,0,27.56c0-.09,0-.17,0-.26,0-7.55.14-11.93,2.24-16.06,1.99-3.9,5.1-7.01,9-9C15.64,0,20.32,0,28.82,0h79.59c8.5,0,13.18,0,17.58,2.24,3.9,1.99,7.01,5.1,8.99,9,2.11,4.13,2.23,8.51,2.24,16.06,0,.09,0,.17,0,.26,0,.41,0,.83,0,1.26v52.14c0,8.5,0,13.17-2.24,17.58-1.99,3.9-5.1,7.01-9,8.99-4.4,2.24-9.08,2.24-17.58,2.24ZM22.69,96.01c1.7.05,3.75.05,6.12.05h79.59c2.37,0,4.42,0,6.12-.05l-26.66-31.99-3.27,2.18c-4.92,3.28-7.62,5.08-11.19,5.94-3.14.75-6.45.75-9.59,0-3.56-.85-6.27-2.66-11.18-5.93l-3.28-2.19-26.66,31.99ZM13.72,40.26v40.7c0,1.6,0,3.06.01,4.36l24.13-28.96-24.15-16.1ZM99.35,56.36l24.13,28.96c.01-1.3.01-2.76.01-4.36v-40.7l-24.15,16.1ZM51.87,49.2l8.37,5.58c3.49,2.32,5.58,3.72,6.77,4.01,1.05.25,2.15.25,3.2,0,1.19-.28,3.29-1.68,6.77-4l8.37-5.58s.06-.04.09-.06l38.03-25.35c-.05-3.16-.21-5.32-.72-6.32-.66-1.3-1.7-2.34-3-3-1.47-.75-5.4-.75-11.35-.75H28.82c-5.95,0-9.88,0-11.35.75-1.3.66-2.34,1.7-3,3-.51,1-.67,3.16-.72,6.32l38.04,25.36s.06.04.09.06Z"/>
  </g>
</svg>