<?xml version="1.0" encoding="UTF-8"?>
<svg id="Capa_2" data-name="Capa 2" xmlns="http://www.w3.org/2000/svg" viewBox="0 0 131.6 131.6">
  <defs>
    <style>
      .cls-1 {
        fill: #97c125;
      }
    </style>
  </defs>
  <g id="Capa_1-2" data-name="Capa 1">
    <path class="cls-1" d="M103.4,131.6c-13.96,0-27.5-2.73-40.25-8.13-12.31-5.21-23.37-12.66-32.87-22.16-9.49-9.49-16.95-20.55-22.16-32.87C2.73,55.7,0,42.16,0,28.2c0-2.55.09-5.12.28-7.65.23-3.2.4-5.52,1.83-8,1.23-2.13,3.2-3.97,5.42-5.04,2.58-1.24,4.95-1.24,8.53-1.24h17.66c2.99,0,4.96,0,7.13.83,1.91.73,3.63,1.94,4.97,3.48,1.52,1.75,2.2,3.61,3.22,6.41l7.31,20.1c1.18,3.25,1.96,5.39,1.79,8.01-.15,2.32-.94,4.54-2.28,6.43-1.52,2.15-3.48,3.32-6.44,5.09l-3.59,2.16c6.3,11.37,15.66,20.73,27.01,27.01l2.16-3.6c1.78-2.96,2.95-4.92,5.09-6.44,1.89-1.34,4.12-2.13,6.43-2.28,2.62-.17,4.76.61,8.01,1.79l20.1,7.31c2.81,1.02,4.66,1.69,6.41,3.22,1.54,1.34,2.75,3.06,3.48,4.97.83,2.16.83,4.14.83,7.12v17.66c0,3.58,0,5.95-1.24,8.53-1.07,2.22-2.9,4.19-5.04,5.42-2.48,1.43-4.79,1.6-8,1.83-2.53.19-5.11.28-7.66.28ZM13.02,18.86c-.09.55-.17,1.63-.24,2.61-.16,2.23-.25,4.5-.25,6.74,0,50.11,40.76,90.87,90.87,90.87,2.25,0,4.51-.08,6.74-.25.98-.07,2.06-.15,2.61-.24.06-.63.06-1.9.06-3.04v-17.66c0-1.02,0-2.07-.04-2.61-.49-.22-1.47-.58-2.43-.93l-20.1-7.31c-1.13-.41-2.29-.83-2.89-1-.37.51-1,1.57-1.62,2.59l-5.15,8.58c-1.64,2.73-5.06,3.8-7.96,2.48-8.95-4.05-17.04-9.66-24.05-16.67-7-7-12.61-15.09-16.67-24.05-1.32-2.9-.25-6.32,2.48-7.96l8.58-5.15c1.03-.62,2.09-1.25,2.6-1.62-.17-.61-.59-1.76-1-2.89l-7.31-20.1c-.35-.96-.71-1.95-.93-2.44-.53-.04-1.58-.04-2.61-.04h-17.66c-1.14,0-2.41,0-3.04.06ZM112.71,118.88h0s0,0,0,0ZM112.73,118.67h0s0,0,0,0ZM112.84,118.55s0,0,0,0c0,0,0,0,0,0ZM112.73,95.04s0,0,0,0c0,0,0,0,0,0ZM87.04,85.99s0,0,0,0c0,0,0,0,0,0ZM45.62,44.56s0,0,0,0c0,0,0,0,0,0ZM12.72,18.9s0,0,0,0c0,0,0,0,0,0ZM12.93,18.87s0,0,0,0c0,0,0,0,0,0ZM36.56,18.87s0,0,0,0c0,0,0,0,0,0ZM13.05,18.76s0,0,0,0c0,0,0,0,0,0ZM100.26,62.36c-2.94,0-5.56-2.08-6.14-5.07-.96-4.91-3.34-9.38-6.88-12.92-3.54-3.54-8.01-5.92-12.93-6.88-3.4-.66-5.61-3.95-4.95-7.35.66-3.4,3.95-5.61,7.35-4.95,7.37,1.44,14.08,5.01,19.39,10.32,5.31,5.31,8.88,12.02,10.32,19.39.66,3.4-1.55,6.69-4.95,7.35-.4.08-.81.12-1.21.12ZM125.33,62.29c-3.15,0-5.86-2.37-6.22-5.57-1.26-11.26-6.38-21.87-14.39-29.87-8.02-8.01-18.63-13.1-29.89-14.36-3.44-.38-5.92-3.48-5.54-6.92.38-3.44,3.48-5.92,6.92-5.54,14.08,1.56,27.35,7.94,37.37,17.94,10.02,10.01,16.41,23.27,17.99,37.34.39,3.44-2.09,6.54-5.53,6.93-.24.03-.47.04-.71.04Z"/>
  </g>
</svg>